<svg xmlns="http://www.w3.org/2000/svg" viewBox="0 0 158.43 80.55"><g id="a77cc8e5-1444-4d9a-aec9-6cccfaf9b8d4" data-name="Layer 2"><g id="a1eb03b2-609c-40c3-ae28-bd4f2ae7aa98" data-name="Layer 3"><path d="M3.49,34.89A32.51,32.51,0,0,0,21.55,12.43l0-.16c.65-3,1.75-10.2-3.09-10.41a5.45,5.45,0,0,0-2.72.72c-4.7,2.47-7.06,8.33-8.83,13C3.45,24.81,1.08,35.51,2.1,45.41,2.31,47.5,3.29,52.19,6.27,52s3.84-3.79,4.45-6.1c.94-3.52,1.77-6.72,4.52-9.34a1.7,1.7,0,0,1,1.21-.61c.63.06,1,.73,1.15,1.34,1.11,4-3.2,12,1.24,14.63a4.17,4.17,0,0,0,4.88-.93,7.21,7.21,0,0,0,2-3.9" style="fill:none;stroke:rgb(207, 136, 136);stroke-linecap:round;stroke-linejoin:bevel;stroke-width:3.719799420887232px"/><path d="M29,35.52a20.35,20.35,0,0,0-2.73,6.91c-.46,2.31-.78,5,.11,7.25a3.31,3.31,0,0,0,3.9,2.15c3-.65,4.41-4.23,5.26-6.82.51-1.55.93-3.14,1.52-4.66A11.06,11.06,0,0,1,38.77,37c1-1.12,3-1.54,4-.15.82,1.2.63,2.78.4,4.12-.3,1.7-.72,3.39-1.15,5.06-.91,3.59-2.12,7.07-3.31,10.57-1.07,3.17-2.21,6.33-3.51,9.42a45.06,45.06,0,0,1-4.61,8.88c-.25.34-.5.67-.77,1-.91,1.12-2.4,2.6-3.93,2.78a2.92,2.92,0,0,1-3-2.36,9.44,9.44,0,0,1,.38-4.65,19.92,19.92,0,0,1,2.36-4.84C30.14,59.73,37.49,55,45.3,52.15A30.59,30.59,0,0,1,51,50.59" style="fill:none;stroke:rgb(207, 136, 136);stroke-linecap:round;stroke-linejoin:bevel;stroke-width:3.719799420887232px"/><path d="M59.27,40a3.62,3.62,0,0,0-2.12-4.18,5,5,0,0,0-4.84.74,8.24,8.24,0,0,0-2.79,4.2,9.79,9.79,0,0,0,1.63,9.39c4.28,4.79,11.92,1,16-2.16" style="fill:none;stroke:rgb(207, 136, 136);stroke-linecap:round;stroke-linejoin:bevel;stroke-width:3.719799420887232px"/><path d="M68.15,48.35A34.48,34.48,0,0,0,74,44.91a11.77,11.77,0,0,0,4-5.3,3.77,3.77,0,0,0-.19-3.39c-.86-1.19-2.61-1.32-4-1-4.06,1-6.89,5.22-7.43,9.2-.36,2.72.34,6.44,2.64,8.15a9.88,9.88,0,0,0,7.67,1.56,18.49,18.49,0,0,0,8.64-4.81" style="fill:none;stroke:rgb(207, 136, 136);stroke-linecap:round;stroke-linejoin:bevel;stroke-width:3.719799420887232px"/><path d="M130.13,48.35a35.29,35.29,0,0,0,5.8-3.44,11.68,11.68,0,0,0,4-5.3,3.77,3.77,0,0,0-.19-3.39c-.86-1.19-2.6-1.32-4-1-4,1-6.89,5.22-7.42,9.2a9,9,0,0,0,.61,5c1.37,3,5.13,4.52,8.28,4.42a12.54,12.54,0,0,0,6.15-2,37.89,37.89,0,0,0,5.13-4.07" style="fill:none;stroke:rgb(207, 136, 136);stroke-linecap:round;stroke-linejoin:bevel;stroke-width:3.719799420887232px"/><path d="M98,36a6.73,6.73,0,0,0-4.51-.51,10.6,10.6,0,0,0-5,3,12.39,12.39,0,0,0-3.17,5.29,8.73,8.73,0,0,0,.48,6.08c1.16,2.33,3.89,2.85,6.21,2,2.15-.74,3.17-2.52,4.39-4.26a31.26,31.26,0,0,0,3.55-6.56c.44-1.11.83-2.54,0-3.58A5.57,5.57,0,0,0,98,36Z" style="fill:none;stroke:rgb(207, 136, 136);stroke-linecap:round;stroke-linejoin:bevel;stroke-width:3.719799420887232px"/><path d="M103.58,52.18c6.48-3.52,10.7-9,14-15.5a59.17,59.17,0,0,0,5.22-14.92,61.76,61.76,0,0,0,1.13-8c.07-1,.83-7-1.48-4.72-3.12,3.12-4.77,7.33-6.06,11.47a68.9,68.9,0,0,0-3.16,14.25c-.49,5.45-1.24,13.45,3.6,17.32a6.92,6.92,0,0,0,2.58,1.27A6.42,6.42,0,0,0,125,51.81a12,12,0,0,0,3.23-5" style="fill:none;stroke:rgb(207, 136, 136);stroke-linecap:round;stroke-linejoin:bevel;stroke-width:3.719799420887232px"/><path d="M102.13,38a30,30,0,0,0-3.49,9.18c-.31,1.57-.43,3.39.67,4.55a3.14,3.14,0,0,0,3.53.82A14.37,14.37,0,0,0,106.93,50" style="fill:none;stroke:rgb(207, 136, 136);stroke-linecap:round;stroke-linejoin:bevel;stroke-width:3.719799420887232px"/><path d="M70.35,23.92c28.08-1.28,57.78-5.88,86.22-2.24" style="fill:none;stroke:rgb(207, 136, 136);stroke-linecap:round;stroke-linejoin:bevel;stroke-width:3.719799420887232px"/></g></g></svg>